<svg width="31" height="30" viewBox="0 0 31 30" fill="none" xmlns="http://www.w3.org/2000/svg">
<path d="M12.7382 0.00107364C12.798 0.000896095 12.8578 0.000663102 12.9177 0.00037944C13.0789 -0.00021234 13.2402 1.27941e-05 13.4014 0.000428999C13.571 0.000762234 13.7406 0.000452399 13.9101 0.000247781C14.1948 1.0559e-05 14.4795 0.00032172 14.7642 0.000945971C15.0922 0.00165702 15.4203 0.00142705 15.7483 0.0007072C16.0311 0.000111797 16.3138 3.12701e-05 16.5966 0.000372349C16.765 0.000575032 16.9334 0.000606487 17.1018 0.000171479C17.2602 -0.000209289 17.4186 6.14263e-05 17.5771 0.00081132C17.6622 0.0010635 17.7472 0.0006809 17.8323 0.000271719C18.578 0.00558336 19.2346 0.263998 19.7763 0.766981C20.2629 1.26371 20.5562 1.88921 20.5557 2.58017C20.5557 2.62322 20.5557 2.62322 20.5558 2.66713C20.5559 2.76267 20.5556 2.85821 20.5554 2.95376C20.5554 3.02249 20.5554 3.09122 20.5554 3.15995C20.5554 3.34613 20.5551 3.5323 20.5548 3.71848C20.5546 3.91319 20.5545 4.10791 20.5545 4.30263C20.5543 4.67117 20.554 5.03972 20.5535 5.40826C20.553 5.82791 20.5528 6.24756 20.5526 6.66721C20.5522 7.40443 20.5515 8.14165 20.5507 8.87888C20.5505 9.08715 20.7196 9.25594 20.9279 9.25534C21.7727 9.25292 22.683 9.25086 23.5045 9.24968C23.9617 9.24901 24.419 9.24809 24.8763 9.24659C25.2749 9.24529 25.6736 9.24445 26.0723 9.24416C26.2833 9.24399 26.4942 9.24359 26.7052 9.24264C26.9041 9.24174 27.1029 9.24147 27.3018 9.24167C27.3745 9.24163 27.4472 9.24138 27.5199 9.24087C28.3018 9.23572 28.959 9.39651 29.5379 9.94195C29.5708 9.97459 29.6038 10.0072 29.6378 10.0409C29.6661 10.0677 29.6945 10.0944 29.7237 10.1221C30.558 11.1041 30.4317 12.9281 30.4005 14.197C30.3954 14.4046 30.2287 14.5729 30.0211 14.5729C28.8043 14.5729 24.9115 14.5729 22.7331 14.5729C22.4979 14.0984 22.2627 13.6238 22.0203 13.1349C21.5278 12.4603 21.2703 12.164 20.5058 11.9147C19.8467 11.8677 19.3846 12.033 18.8769 12.4427C18.5447 12.7448 18.3237 13.1021 18.1003 13.4835C18.0836 13.5113 18.0669 13.539 18.0497 13.5676C16.7428 15.7551 16.2049 18.5678 15.697 21.0275C15.6629 21.1904 15.6204 21.3456 15.5611 21.5018C15.5464 21.5018 15.5317 21.5018 15.5166 21.5018C15.0701 18.5264 15.0701 18.5264 14.957 17.6288C14.8678 16.923 14.7656 16.2192 14.6618 15.5153C14.4937 14.3743 14.3316 13.2325 14.1729 12.0902C14.0545 11.2377 13.9324 10.3859 13.8073 9.53432C13.7268 8.9863 13.6467 8.43823 13.569 7.88983C13.5247 7.57794 13.4799 7.26613 13.4348 6.95435C13.4047 6.74615 13.3749 6.53791 13.3456 6.3296C13.3168 6.12531 13.2874 5.92112 13.2576 5.71697C13.2464 5.6399 13.2355 5.5628 13.2248 5.48566C13.2099 5.37823 13.1942 5.27095 13.1783 5.16367C13.1741 5.13238 13.17 5.10109 13.1657 5.06886C13.131 4.84371 13.0602 4.69323 12.9329 4.50649C12.7596 4.38709 12.6045 4.35123 12.3962 4.36095C12.2412 4.38733 12.1574 4.44742 12.042 4.55007C11.8691 4.82801 11.8108 5.10264 11.7528 5.4209C11.7214 5.59255 11.6881 5.76384 11.6551 5.93519C11.6438 5.99457 11.6438 5.99457 11.6322 6.05514C11.5598 6.43192 11.483 6.8078 11.4056 7.18362C11.3991 7.21534 11.3926 7.24706 11.3858 7.27973C11.3589 7.41057 11.3319 7.54141 11.305 7.67224C11.0177 9.06602 11.0177 9.06602 10.7473 10.463C10.5993 11.2538 10.4446 12.0433 10.288 12.8326C10.2818 12.8638 10.2756 12.895 10.2692 12.9271C10.0333 14.1158 9.79222 15.3034 9.54737 16.4904C9.43322 16.5121 9.43322 16.5121 9.28009 16.4904C9.02494 16.2888 8.88309 16.0076 8.75111 15.7208C8.73233 15.6811 8.71356 15.6414 8.69422 15.6005C8.51035 15.2082 8.33964 14.8104 8.1719 14.4113C8.08616 14.2075 7.99945 14.004 7.91273 13.8006C7.89599 13.7613 7.87924 13.722 7.86199 13.6816C7.73151 13.376 7.59838 13.0718 7.45926 12.7699C7.44261 12.7333 7.42596 12.6966 7.4088 12.6588C7.30348 12.4337 7.19518 12.2456 6.98596 12.0972C6.73703 12.0146 6.45407 11.9763 6.20707 12.084C5.97239 12.2141 5.84563 12.3654 5.71082 12.5901C5.6692 12.6561 5.62749 12.7219 5.58571 12.7878C5.5529 12.8401 5.5529 12.8401 5.51943 12.8935C4.86035 13.9303 4.86035 13.9303 4.46909 14.355C4.43927 14.3922 4.40945 14.4294 4.37872 14.4677C4.1954 14.6134 4.06202 14.6023 3.8326 14.5977C3.77063 14.5977 3.77063 14.5977 3.70742 14.5978C3.57121 14.5976 3.43507 14.5959 3.29888 14.5942C3.20432 14.5938 3.10976 14.5935 3.01519 14.5933C2.76655 14.5924 2.51794 14.5903 2.26932 14.5879C2.01551 14.5857 1.7617 14.5847 1.50789 14.5836C1.13321 14.5818 0.758535 14.5793 0.383864 14.5762C0.1788 14.5745 0.0130408 14.4086 0.0116017 14.2035C0.00986826 13.9565 0.00849577 13.7095 0.00753345 13.4625C0.00684078 13.2906 0.00590315 13.1186 0.00437545 12.9467C0.00290624 12.7803 0.00212049 12.6138 0.00177755 12.4474C0.00153367 12.3844 0.00105742 12.3214 0.000327023 12.2584C-0.0092589 11.3963 0.190251 10.6356 0.816291 9.99728C1.46776 9.38391 2.15825 9.24254 3.027 9.24656C3.10167 9.24659 3.17634 9.24657 3.251 9.24652C3.45272 9.2465 3.65444 9.24701 3.85615 9.24762C4.06733 9.24817 4.2785 9.24822 4.48968 9.24832C4.88913 9.24859 5.28857 9.2493 5.68802 9.25018C6.14296 9.25116 6.59791 9.25163 7.05285 9.25207C7.86213 9.25286 8.67141 9.25411 9.48069 9.25569C9.68933 9.2561 9.85841 9.08664 9.85753 8.87801C9.85429 8.11672 9.85154 7.29948 9.84996 6.56079C9.84905 6.14352 9.8478 5.72626 9.84575 5.309C9.84397 4.94508 9.84283 4.58117 9.84243 4.21724C9.8422 4.02476 9.84166 3.83228 9.84036 3.6398C9.83914 3.45816 9.83878 3.27655 9.83904 3.09491C9.83899 3.02869 9.83865 2.96247 9.83796 2.89625C9.8302 2.11311 10.0525 1.379 10.6118 0.796771C10.9289 0.521121 11.2872 0.292576 11.6856 0.148723C11.7326 0.131438 11.7326 0.131438 11.7805 0.113804C12.1013 0.00736417 12.4015 -0.000542882 12.7382 0.00107364Z" fill="#0097A7"/>
<path d="M12.2629 8.86946C12.302 8.69487 12.4683 8.66641 12.4945 8.84341C12.4989 8.87271 12.5034 8.90201 12.5079 8.9322C12.5227 9.03004 12.5368 9.12794 12.551 9.22585C12.5613 9.29515 12.5716 9.36443 12.582 9.43372C12.6094 9.61782 12.6364 9.80198 12.6632 9.98615C12.6845 10.1312 12.706 10.2763 12.7276 10.4213C12.8528 11.2619 12.9722 12.1032 13.0876 12.9451C13.1458 13.3695 13.2053 13.7936 13.2655 14.2177C13.2722 14.2653 13.2722 14.2653 13.2791 14.3138C13.3019 14.4743 13.3248 14.6348 13.3476 14.7954C13.3716 14.964 13.3956 15.1326 13.4195 15.3013C13.5069 15.9163 13.5943 16.5313 13.6831 17.1461C13.7059 17.3042 13.7287 17.4624 13.7515 17.6205C13.7569 17.6577 13.7622 17.695 13.7678 17.7333C13.8352 18.2027 13.8963 18.6722 13.952 19.143C14.0325 19.823 14.1391 20.4986 14.2457 21.1751C14.3609 21.9082 14.4656 22.6415 14.5529 23.3783C14.6139 24.312 14.6139 24.312 15.0712 25.075C15.3033 25.1507 15.5495 25.1604 15.7756 25.0587C16.0903 24.8469 16.1466 24.3429 16.2266 24.0019C16.2381 23.9542 16.2495 23.9064 16.2614 23.8572C16.3442 23.5087 16.4192 23.1588 16.4924 22.8081C16.7149 21.7516 16.9746 20.7022 17.2458 19.6568C17.2613 19.5971 17.2768 19.5374 17.2922 19.4777C17.2999 19.4481 17.3076 19.4184 17.3155 19.3879C17.3682 19.1835 17.4182 18.9785 17.4672 18.7732C17.5862 18.2762 17.7197 17.7843 17.8637 17.2937C17.8752 17.2543 17.8868 17.2148 17.8987 17.1742C18.896 13.783 19.0542 13.5112 19.9133 13.1347C20.0787 13.063 20.2068 13.063 20.3722 13.1347C21.0506 13.4598 21.3494 14.3652 21.6153 15.0028C21.7635 15.3544 21.8842 15.5801 22.2431 15.7494C22.409 15.8042 22.5715 15.799 22.7455 15.7999C22.7782 15.8001 22.8109 15.8003 22.8446 15.8005C22.9542 15.8012 23.0639 15.8016 23.1735 15.8019C23.2521 15.8023 23.3307 15.8028 23.4093 15.8032C23.6227 15.8044 23.8361 15.8053 24.0495 15.8062C24.2725 15.8071 24.4956 15.8083 24.7186 15.8095C25.1409 15.8117 25.5632 15.8136 25.9856 15.8155C26.4663 15.8177 26.9471 15.8201 27.4279 15.8225C28.1505 15.8261 29.4035 15.8222 30.0263 15.8198C30.2334 15.819 30.4011 15.9857 30.4005 16.1928C30.4001 16.335 30.3995 16.4776 30.4 16.6151C30.4005 16.703 30.4011 16.7909 30.4018 16.8789C30.411 17.9389 30.3758 18.8672 29.5877 19.6821C29.099 20.1337 28.4394 20.4179 27.7661 20.4174C27.7352 20.4175 27.7043 20.4175 27.6724 20.4176C27.569 20.4176 27.4657 20.4174 27.3624 20.4172C27.2881 20.4171 27.2139 20.4171 27.1397 20.4172C26.9385 20.4172 26.7372 20.4169 26.5359 20.4166C26.3255 20.4164 26.1151 20.4163 25.9047 20.4163C25.5064 20.4161 25.108 20.4158 24.7097 20.4153C24.2561 20.4149 23.8026 20.4146 23.3491 20.4144C22.5422 20.414 21.7354 20.4134 20.9286 20.4126C20.7201 20.4124 20.5512 20.5818 20.5521 20.7903C20.5553 21.5173 20.558 22.2964 20.5596 23.0011C20.5605 23.4018 20.5618 23.8026 20.5638 24.2033C20.5656 24.5529 20.5668 24.9025 20.5672 25.2521C20.5674 25.4369 20.5679 25.6218 20.5692 25.8066C20.5704 25.9812 20.5708 26.1557 20.5705 26.3302C20.5706 26.3938 20.5709 26.4573 20.5716 26.5208C20.5807 27.398 20.3351 28.1388 19.704 28.7791C19.1104 29.27 18.466 29.4531 17.7001 29.4504C17.639 29.4506 17.578 29.4509 17.517 29.4513C17.3527 29.4521 17.1884 29.452 17.0241 29.4518C16.8863 29.4516 16.7485 29.4519 16.6107 29.4522C16.2853 29.4528 15.9598 29.4527 15.6344 29.4522C15.3001 29.4517 14.9658 29.4523 14.6315 29.4535C14.3431 29.4545 14.0548 29.4548 13.7664 29.4545C13.5948 29.4544 13.4231 29.4545 13.2515 29.4552C13.09 29.4559 12.9284 29.4557 12.7669 29.4549C12.6803 29.4547 12.5938 29.4553 12.5072 29.4559C11.7918 29.4501 11.1454 29.1921 10.6237 28.7095C10.0587 28.0948 9.86779 27.3953 9.87852 26.5863C9.87858 26.5183 9.87855 26.4504 9.87842 26.3825C9.87836 26.2004 9.87966 26.0185 9.88122 25.8364C9.88263 25.6453 9.88275 25.4542 9.88301 25.2631C9.8837 24.9023 9.88552 24.5415 9.88777 24.1807C9.89027 23.7695 9.89148 23.3582 9.8926 22.947C9.89457 22.2285 9.89769 21.5101 9.90164 20.7916C9.90279 20.5826 9.73344 20.4127 9.52447 20.4133C8.69286 20.4158 7.79745 20.4178 6.9891 20.419C6.53793 20.4197 6.08677 20.4206 5.63561 20.4221C5.24219 20.4234 4.84876 20.4242 4.45533 20.4245C4.24719 20.4247 4.03906 20.4251 3.83092 20.426C3.63461 20.4269 3.43831 20.4272 3.242 20.427C3.17034 20.427 3.09868 20.4273 3.02702 20.4278C2.18488 20.4334 1.44349 20.2646 0.819119 19.6857C0.400373 19.2749 0.0794009 18.698 0.0537109 18.1109C0.0538099 18.0689 0.0539095 18.0269 0.0540114 17.9836C0.0540147 17.9357 0.0540174 17.8877 0.0540209 17.8383C0.0542508 17.7872 0.0544814 17.7361 0.0547183 17.6835C0.0547813 17.6307 0.054845 17.5778 0.05491 17.5234C0.0551588 17.3551 0.0557171 17.1869 0.0562844 17.0186C0.0565079 16.9043 0.0567111 16.79 0.0568934 16.6758C0.0571668 16.5198 0.0559507 16.3623 0.0549836 16.205C0.0537132 15.9983 0.220782 15.831 0.427457 15.8308C0.840963 15.8306 1.30265 15.8311 1.67157 15.8285C1.92119 15.8268 2.1708 15.8254 2.42043 15.8247C2.66161 15.8241 2.90278 15.8226 3.14396 15.8205C3.23568 15.8199 3.32741 15.8195 3.41913 15.8195C4.15794 15.8189 4.73098 15.7412 5.28595 15.222C5.4665 15.0424 5.61053 14.8431 5.75543 14.6354C5.78228 14.5975 5.80914 14.5595 5.8368 14.5203C5.9855 14.3089 6.13073 14.0954 6.27282 13.8799C6.37945 13.7182 6.61234 13.6886 6.685 13.8682C6.69873 13.9016 6.71246 13.9351 6.7266 13.9695C6.7483 14.0238 6.7483 14.0238 6.77043 14.0791C6.78585 14.1169 6.80127 14.1547 6.81716 14.1936C6.85014 14.2744 6.88298 14.3553 6.91568 14.4362C7.00046 14.6458 7.08649 14.8549 7.17239 15.0641C7.18917 15.105 7.20596 15.146 7.22325 15.1882C7.7623 16.6735 7.7623 16.6735 8.92379 17.6668C9.36667 17.8045 9.78079 17.6831 10.181 17.4877C10.532 17.2734 10.708 16.8507 10.8037 16.4699C10.8521 16.2527 10.8903 16.0339 10.9284 15.8148C10.9433 15.7332 10.9583 15.6516 10.9735 15.5701C11.0041 15.404 11.0343 15.2378 11.064 15.0716C11.1193 14.7621 11.1775 14.4531 11.2358 14.1442C11.2543 14.0461 11.2727 13.948 11.291 13.8499C11.4316 13.099 11.5811 12.3499 11.7304 11.6007C11.8432 11.0336 11.9519 10.4661 12.0531 9.897C12.1148 9.55268 12.1865 9.21066 12.2629 8.86946Z" fill="#00C2CB"/>
</svg>
