<svg width="297" height="179" viewBox="0 0 297 179" fill="none" xmlns="http://www.w3.org/2000/svg">
<path d="M139.78 0.00356623C139.979 0.00297649 140.178 0.00220258 140.376 0.00126036C140.912 -0.000705315 141.448 4.24971e-05 141.983 0.00142497C142.547 0.00253186 143.11 0.0015027 143.673 0.000823036C144.619 3.50731e-05 145.564 0.00106863 146.51 0.00314216C147.6 0.00550401 148.689 0.00474011 149.779 0.00234905C150.718 0.000371347 151.657 0.000103868 152.597 0.0012368C153.156 0.00191004 153.715 0.00201452 154.274 0.00056959C154.801 -0.000695179 155.327 0.000204035 155.853 0.0026949C156.136 0.00353255 156.418 0.0022617 156.701 0.000902549C159.178 0.0185458 161.359 0.876903 163.158 2.54762C164.775 4.19757 165.749 6.27526 165.747 8.57037C165.747 8.71334 165.747 8.71334 165.747 8.8592C165.748 9.17657 165.747 9.49392 165.746 9.81128C165.746 10.0396 165.746 10.2679 165.746 10.4962C165.746 11.1146 165.745 11.733 165.744 12.3514C165.743 12.9982 165.743 13.6449 165.743 14.2917C165.743 15.5159 165.741 16.74 165.74 17.9642C165.738 19.3581 165.737 20.7521 165.737 22.146C165.735 24.728 165.733 27.3101 165.73 29.8921C165.73 30.3634 166.112 30.7453 166.583 30.7439C169.5 30.7354 172.683 30.7281 175.542 30.724C177.061 30.7218 178.58 30.7187 180.098 30.7137C181.423 30.7094 182.747 30.7066 184.071 30.7056C184.772 30.7051 185.473 30.7037 186.173 30.7006C186.834 30.6976 187.495 30.6967 188.155 30.6974C188.397 30.6973 188.638 30.6964 188.88 30.6947C191.477 30.6776 193.66 31.2117 195.583 33.0235C195.692 33.1319 195.802 33.2403 195.914 33.352C196.009 33.441 196.103 33.53 196.2 33.6217C199.06 36.9879 198.521 43.3325 198.439 47.5556C198.43 48.0254 198.057 48.4058 197.587 48.4058C194.079 48.4058 180.475 48.4058 172.98 48.4058C172.198 46.8295 171.417 45.2532 170.612 43.6291C168.976 41.3884 168.121 40.4042 165.581 39.5762C163.392 39.42 161.857 39.969 160.171 41.3301C159.067 42.3336 158.333 43.5202 157.591 44.7871C157.536 44.8794 157.48 44.9716 157.423 45.0667C153.082 52.3324 151.295 61.6752 149.608 69.8456C149.495 70.3865 149.354 70.9021 149.157 71.4209C149.108 71.4209 149.059 71.4209 149.009 71.4209C147.526 61.5378 147.526 61.5378 147.15 58.5563C146.854 56.2118 146.515 53.8741 146.17 51.536C145.611 47.746 145.073 43.9535 144.546 40.1591C144.153 37.3276 143.747 34.4979 143.331 31.6694C143.064 29.8491 142.798 28.0287 142.54 26.2071C142.393 25.1711 142.244 24.1354 142.094 23.0998C141.994 22.4082 141.895 21.7165 141.798 21.0246C141.702 20.346 141.605 19.6677 141.505 18.9896C141.468 18.7336 141.432 18.4775 141.397 18.2213C141.347 17.8645 141.295 17.5081 141.242 17.1518C141.228 17.0478 141.214 16.9439 141.2 16.8369C141.085 16.089 140.85 15.5891 140.427 14.9689C139.852 14.5723 139.336 14.4532 138.644 14.4854C138.13 14.5731 137.851 14.7727 137.468 15.1136C136.893 16.0368 136.7 16.9491 136.507 18.0062C136.403 18.5763 136.292 19.1453 136.183 19.7145C136.145 19.9117 136.145 19.9117 136.107 20.1129C135.866 21.3644 135.611 22.613 135.354 23.8613C135.332 23.9667 135.311 24.072 135.288 24.1805C135.199 24.6151 135.109 25.0497 135.02 25.4843C134.065 30.1139 134.065 30.1139 133.167 34.7542C132.676 37.381 132.162 40.0034 131.641 42.6249C131.621 42.7286 131.6 42.8323 131.579 42.9392C130.795 46.8874 129.995 50.8323 129.182 54.7748C128.802 54.8472 128.802 54.8472 128.294 54.7748C127.446 54.1054 126.975 53.1712 126.537 52.2185C126.474 52.0867 126.412 51.9549 126.348 51.8191C125.737 50.5159 125.17 49.1947 124.613 47.8689C124.328 47.1919 124.04 46.5162 123.752 45.8405C123.696 45.71 123.641 45.5795 123.583 45.445C123.15 44.43 122.708 43.4197 122.246 42.4169C122.19 42.2951 122.135 42.1734 122.078 42.048C121.728 41.3002 121.368 40.6752 120.673 40.1823C119.847 39.9079 118.907 39.7807 118.086 40.1385C117.307 40.5707 116.886 41.0733 116.438 41.8198C116.3 42.0387 116.161 42.2576 116.022 42.4762C115.913 42.6501 115.913 42.6501 115.802 42.8274C113.613 46.2714 113.613 46.2714 112.313 47.6821C112.214 47.8056 112.115 47.9291 112.013 48.0564C111.404 48.5404 110.961 48.5034 110.199 48.488C109.993 48.4882 109.993 48.4882 109.783 48.4883C109.331 48.4878 108.879 48.4822 108.426 48.4765C108.112 48.4752 107.798 48.4741 107.484 48.4734C106.658 48.4706 105.832 48.4635 105.007 48.4555C104.164 48.4481 103.32 48.4448 102.477 48.4412C101.102 48.4347 99.7276 48.4251 98.3527 48.4133C97.8886 48.4093 97.5136 48.034 97.5101 47.5699C97.503 46.6191 97.4975 45.6683 97.4938 44.7174C97.4915 44.1463 97.4884 43.5752 97.4833 43.004C97.4784 42.4512 97.4758 41.8985 97.4747 41.3456C97.4738 41.1364 97.4723 40.9272 97.4698 40.718C97.438 37.8542 98.1007 35.3276 100.18 33.2072C102.344 31.1698 104.638 30.7003 107.523 30.7136C107.771 30.7137 108.019 30.7137 108.267 30.7135C108.937 30.7134 109.607 30.7151 110.277 30.7171C110.979 30.719 111.68 30.7191 112.382 30.7195C113.709 30.7204 115.035 30.7227 116.362 30.7256C117.873 30.7289 119.385 30.7305 120.896 30.7319C123.717 30.7347 126.539 30.7391 129.361 30.7447C129.833 30.7457 130.216 30.3622 130.213 29.8901C130.202 27.2494 130.192 24.3763 130.187 21.7925C130.184 20.4065 130.179 19.0205 130.173 17.6345C130.167 16.4257 130.163 15.2169 130.162 14.0081C130.161 13.3687 130.159 12.7294 130.155 12.09C130.151 11.4867 130.149 10.8835 130.15 10.2801C130.15 10.0602 130.149 9.84021 130.147 9.62026C130.121 7.01896 130.859 4.58051 132.717 2.64657C133.77 1.73097 134.961 0.971827 136.284 0.494002C136.44 0.436588 136.44 0.436588 136.599 0.378015C137.665 0.024461 138.662 -0.00180325 139.78 0.00356623Z" fill="#0097A7" style="fill:#0097A7;fill:color(display-p3 0.0000 0.5922 0.6549);fill-opacity:1;"/>
<path d="M138.201 29.4611C138.331 28.8812 138.883 28.7866 138.97 29.3746C138.985 29.4719 139 29.5692 139.015 29.6695C139.064 29.9945 139.111 30.3197 139.158 30.6449C139.192 30.8751 139.226 31.1052 139.261 31.3354C139.352 31.9469 139.441 32.5586 139.531 33.1703C139.601 33.6522 139.673 34.1339 139.745 34.6156C140.16 37.4078 140.557 40.2023 140.94 42.9988C141.134 44.4084 141.331 45.8173 141.531 47.226C141.554 47.384 141.554 47.384 141.576 47.5451C141.652 48.0783 141.728 48.6115 141.804 49.1447C141.884 49.7048 141.963 50.265 142.043 50.8252C142.333 52.868 142.623 54.9108 142.918 56.953C142.994 57.4782 143.07 58.0035 143.145 58.5288C143.163 58.6525 143.181 58.7761 143.199 58.9036C143.424 60.4625 143.626 62.022 143.811 63.586C144.079 65.8445 144.433 68.0888 144.787 70.3357C145.17 72.7708 145.517 75.2067 145.807 77.6541C146.01 80.7553 146.01 80.7553 147.529 83.2899C148.3 83.5413 149.118 83.5736 149.869 83.2356C150.914 82.5322 151.101 80.858 151.367 79.7255C151.405 79.5669 151.443 79.4083 151.482 79.2449C151.757 78.0871 152.007 76.9248 152.25 75.7602C152.989 72.2509 153.851 68.7651 154.752 65.2926C154.804 65.0942 154.855 64.8959 154.906 64.6976C154.932 64.5992 154.957 64.5008 154.984 64.3995C155.159 63.7204 155.325 63.0395 155.488 62.3576C155.883 60.7066 156.326 59.073 156.805 57.4432C156.843 57.3123 156.881 57.1813 156.921 57.0465C160.234 45.7819 160.759 44.8793 163.613 43.6287C164.162 43.3904 164.588 43.3904 165.137 43.6287C167.39 44.7084 168.383 47.7158 169.266 49.8338C169.758 51.0016 170.159 51.7513 171.351 52.3137C171.902 52.4956 172.442 52.4785 173.02 52.4813C173.129 52.482 173.237 52.4827 173.349 52.4835C173.714 52.4857 174.078 52.4869 174.442 52.4881C174.703 52.4895 174.964 52.491 175.225 52.4925C175.934 52.4964 176.643 52.4994 177.352 52.5023C178.092 52.5055 178.833 52.5094 179.574 52.5133C180.977 52.5206 182.38 52.5271 183.782 52.5333C185.379 52.5405 186.976 52.5484 188.573 52.5564C191.138 52.5693 195.714 52.5536 197.598 52.5461C198.067 52.5442 198.449 52.9213 198.448 53.3899C198.447 53.9923 198.443 54.6046 198.446 55.1891C198.447 55.4812 198.449 55.7733 198.452 56.0654C198.482 59.5863 198.365 62.6699 195.747 65.3767C194.124 66.8768 191.933 67.8208 189.697 67.8192C189.594 67.8193 189.491 67.8194 189.385 67.8196C189.042 67.8198 188.699 67.819 188.356 67.8182C188.109 67.8182 187.863 67.8182 187.616 67.8183C186.948 67.8183 186.279 67.8175 185.611 67.8165C184.912 67.8155 184.213 67.8155 183.514 67.8153C182.191 67.8148 180.868 67.8137 179.544 67.8122C178.038 67.8106 176.531 67.8098 175.025 67.8091C172.211 67.8077 169.398 67.8055 166.585 67.8027C166.113 67.8022 165.731 68.1856 165.733 68.6574C165.744 71.1844 165.754 73.9304 165.759 76.4011C165.762 77.7322 165.767 79.0634 165.773 80.3945C165.779 81.5557 165.783 82.7169 165.784 83.8781C165.785 84.4921 165.787 85.106 165.791 85.72C165.795 86.2998 165.797 86.8795 165.796 87.4593C165.796 87.6703 165.797 87.8812 165.799 88.0922C165.83 91.006 165.014 93.4665 162.917 95.5935C160.946 97.224 158.805 97.8322 156.261 97.8232C156.058 97.8241 155.856 97.8251 155.653 97.8263C155.107 97.8288 154.562 97.8287 154.016 97.8279C153.558 97.8274 153.1 97.8283 152.643 97.8292C151.562 97.8312 150.481 97.831 149.4 97.8293C148.289 97.8277 147.179 97.8297 146.068 97.8336C145.111 97.8368 144.153 97.8377 143.195 97.8369C142.625 97.8364 142.055 97.8367 141.485 97.8393C140.948 97.8415 140.411 97.8409 139.875 97.8382C139.587 97.8374 139.3 97.8395 139.012 97.8416C136.636 97.8224 134.489 96.9653 132.756 95.3623C130.879 93.3206 130.245 90.9969 130.281 88.3097C130.281 88.0841 130.281 87.8584 130.281 87.6327C130.28 87.0281 130.285 86.4237 130.29 85.8191C130.294 85.1843 130.295 84.5495 130.296 83.9147C130.298 82.7162 130.304 81.5177 130.312 80.3192C130.32 78.9533 130.324 77.5874 130.328 76.2214C130.335 73.701 130.346 71.1806 130.36 68.6602C130.363 68.1874 129.979 67.803 129.506 67.8044C126.633 67.8129 123.499 67.8202 120.683 67.8243C119.185 67.8265 117.686 67.8296 116.187 67.8345C114.881 67.8389 113.574 67.8417 112.267 67.8426C111.576 67.8432 110.884 67.8445 110.193 67.8477C109.541 67.8507 108.889 67.8515 108.237 67.8509C107.999 67.851 107.761 67.8519 107.523 67.8535C104.725 67.8723 102.263 67.3114 100.189 65.3885C98.798 64.0239 97.7318 62.108 97.6465 60.1577C97.6468 60.0182 97.6471 59.8787 97.6475 59.7349C97.6475 59.5756 97.6475 59.4163 97.6475 59.2521C97.6483 59.0825 97.649 58.9128 97.6498 58.738C97.65 58.5625 97.6503 58.3871 97.6505 58.2063C97.6513 57.6473 97.6531 57.0884 97.655 56.5295C97.6558 56.1499 97.6564 55.7703 97.6571 55.3907C97.6582 54.742 97.6516 54.0851 97.6485 53.4315C97.6464 52.9639 98.0248 52.5852 98.4924 52.5846C99.9604 52.5828 101.676 52.5859 103.02 52.5765C103.85 52.5708 104.679 52.5662 105.508 52.5639C106.309 52.5617 107.11 52.5567 107.911 52.5498C108.216 52.5477 108.52 52.5466 108.825 52.5464C111.279 52.5445 113.183 52.2863 115.026 50.562C115.626 49.9652 116.104 49.3032 116.585 48.6135C116.675 48.4873 116.764 48.3612 116.856 48.2312C117.394 47.466 117.918 46.6929 118.43 45.9116C118.717 45.4745 119.351 45.3845 119.58 45.8545C119.612 45.9203 119.643 45.9901 119.673 46.065C119.719 46.1761 119.764 46.2871 119.811 46.4015C119.883 46.5818 119.883 46.5818 119.957 46.7657C120.008 46.8911 120.059 47.0166 120.112 47.1458C120.222 47.4142 120.331 47.6828 120.439 47.9517C120.721 48.6479 121.007 49.3425 121.292 50.0373C121.348 50.1733 121.404 50.3093 121.461 50.4494C123.252 55.3833 123.252 55.3833 127.11 58.6826C128.581 59.14 129.956 58.7369 131.286 58.0878C132.452 57.3757 133.036 55.9718 133.354 54.7069C133.515 53.9855 133.642 53.2586 133.768 52.5308C133.818 52.2598 133.868 51.9889 133.918 51.718C134.02 51.1664 134.12 50.6144 134.219 50.0622C134.402 49.0342 134.595 48.0079 134.789 46.9817C134.851 46.6559 134.912 46.33 134.973 46.0042C135.44 43.5102 135.936 41.0217 136.432 38.5331C136.807 36.6496 137.168 34.7647 137.504 32.8742C137.709 31.7305 137.947 30.5944 138.201 29.4611Z" fill="#00C2CB" style="fill:#00C2CB;fill:color(display-p3 0.0000 0.7608 0.7961);fill-opacity:1;"/>
<path d="M2.37058 143.691C1.4462 143.691 0.790194 143.44 0.402552 142.937C0.044728 142.434 -0.0745466 141.738 0.0447279 140.851L4.29389 114.264C4.44298 113.436 4.74117 112.829 5.18845 112.445C5.66554 112.03 6.30665 111.823 7.11175 111.823C7.8274 111.823 8.37904 111.986 8.76668 112.311C9.18414 112.607 9.54197 113.14 9.84016 113.909L17.4439 133.971H16.1468L30.5492 113.465C30.9667 112.874 31.414 112.459 31.8911 112.223C32.3681 111.956 32.9645 111.823 33.6802 111.823C34.5449 111.823 35.1711 112.075 35.5587 112.578C35.9762 113.081 36.1104 113.776 35.9613 114.664L31.7121 141.25C31.5929 142.049 31.2947 142.656 30.8176 143.07C30.3703 143.484 29.7292 143.691 28.8943 143.691C28.0594 143.691 27.4332 143.44 27.0157 142.937C26.5982 142.434 26.4491 141.738 26.5684 140.851L29.8336 120.434H30.8623L18.6516 137.788C18.3236 138.262 17.9806 138.602 17.6228 138.809C17.2948 138.987 16.8774 139.075 16.3704 139.075C15.8039 139.075 15.3417 138.942 14.9839 138.676C14.6559 138.41 14.3726 137.995 14.134 137.433L7.46957 120.611H8.45359L5.14372 141.25C5.02444 142.049 4.72626 142.656 4.24916 143.07C3.80188 143.484 3.17569 143.691 2.37058 143.691Z" fill="#0097A7" style="fill:#0097A7;fill:color(display-p3 0.0000 0.5922 0.6549);fill-opacity:1;"/>
<path d="M49.2071 143.913C47.0005 143.913 45.0772 143.514 43.4372 142.715C41.827 141.886 40.5746 140.732 39.68 139.253C38.7854 137.773 38.3382 136.042 38.3382 134.06C38.3382 131.634 38.8451 129.473 39.8589 127.58C40.9026 125.656 42.3339 124.133 44.1528 123.008C45.9717 121.884 48.059 121.322 50.4147 121.322C52.2337 121.322 53.7544 121.632 54.977 122.254C56.1995 122.875 57.1686 123.718 57.8843 124.784C58.5999 125.819 59.077 127.003 59.3156 128.334C59.5541 129.666 59.5989 131.027 59.4498 132.418C59.3901 133.039 59.2261 133.438 58.9578 133.616C58.6894 133.794 58.3167 133.882 57.8396 133.882H42.811L43.2582 130.687H55.7821L55.0217 131.352C55.2006 130.169 55.1559 129.118 54.8875 128.201C54.6192 127.254 54.1122 126.5 53.3668 125.938C52.6511 125.375 51.6522 125.094 50.37 125.094C49.058 125.094 47.9547 125.39 47.0601 125.982C46.1656 126.574 45.4648 127.343 44.9579 128.29C44.451 129.207 44.1081 130.198 43.9292 131.264L43.7055 132.64C43.3477 134.8 43.7055 136.516 44.779 137.788C45.8525 139.061 47.4925 139.697 49.6991 139.697C50.5936 139.697 51.518 139.608 52.4722 139.43C53.4264 139.223 54.2911 138.898 55.0664 138.454C55.633 138.128 56.125 137.995 56.5425 138.054C56.9897 138.084 57.3326 138.247 57.5712 138.543C57.8396 138.809 58.0036 139.149 58.0632 139.564C58.1228 139.948 58.0483 140.362 57.8396 140.806C57.6607 141.221 57.3326 141.59 56.8556 141.916C55.8119 142.596 54.5744 143.1 53.1431 143.425C51.7118 143.75 50.3998 143.913 49.2071 143.913Z" fill="#0097A7" style="fill:#0097A7;fill:color(display-p3 0.0000 0.5922 0.6549);fill-opacity:1;"/>
<path d="M70.7656 143.913C69.1256 143.913 67.6794 143.529 66.427 142.759C65.2044 141.99 64.2502 140.91 63.5644 139.519C62.8786 138.099 62.5357 136.442 62.5357 134.548C62.5357 132.063 62.968 129.829 63.8328 127.846C64.7273 125.834 65.9946 124.251 67.6346 123.097C69.3045 121.913 71.2725 121.322 73.5387 121.322C75.2086 121.322 76.6846 121.721 77.9668 122.52C79.249 123.319 80.1436 124.502 80.6505 126.071L80.3374 126.026L82.1712 114.442C82.3203 113.525 82.6632 112.859 83.2 112.445C83.7367 112.03 84.4673 111.823 85.3916 111.823C86.2564 111.823 86.8826 112.09 87.2702 112.622C87.6877 113.155 87.8219 113.939 87.6728 114.975L83.5131 140.984C83.364 141.901 83.0211 142.611 82.4843 143.114C81.9476 143.588 81.217 143.824 80.2927 143.824C79.4279 143.824 78.8017 143.529 78.4141 142.937C78.0563 142.315 77.9668 141.502 78.1457 140.496L78.5483 138.054L78.593 139.386C77.7879 140.777 76.7144 141.886 75.3726 142.715C74.0307 143.514 72.4951 143.913 70.7656 143.913ZM72.9573 139.697C74.3289 139.697 75.477 139.312 76.4013 138.543C77.3555 137.744 78.0861 136.693 78.593 135.391C79.0999 134.06 79.3534 132.58 79.3534 130.953C79.3534 129.207 78.921 127.876 78.0563 126.958C77.2213 126.011 76.0584 125.538 74.5675 125.538C73.2256 125.538 72.0776 125.923 71.1234 126.692C70.1692 127.461 69.4387 128.512 68.9318 129.843C68.4248 131.145 68.1714 132.625 68.1714 134.282C68.1714 136.028 68.5888 137.374 69.4238 138.321C70.2885 139.238 71.4663 139.697 72.9573 139.697Z" fill="#0097A7" style="fill:#0097A7;fill:color(display-p3 0.0000 0.5922 0.6549);fill-opacity:1;"/>
<path d="M100.489 143.824C99.7136 143.824 99.1023 143.603 98.6551 143.159C98.2078 142.715 97.8947 142.049 97.7158 141.161L92.6168 115.241C92.408 114.205 92.5422 113.377 93.0193 112.755C93.5262 112.134 94.2717 111.823 95.2557 111.823C96.0012 111.823 96.5976 112.045 97.0448 112.489C97.5219 112.903 97.835 113.554 97.9841 114.442L102.233 137.833H100.444L112.7 113.954C113.087 113.214 113.52 112.681 113.997 112.356C114.504 112.001 115.115 111.823 115.831 111.823C116.516 111.823 117.053 112.045 117.441 112.489C117.858 112.903 118.156 113.584 118.335 114.531L122.629 137.833H121.019L133.14 113.909C133.498 113.199 133.901 112.681 134.348 112.356C134.795 112.001 135.392 111.823 136.137 111.823C137.24 111.823 137.986 112.178 138.374 112.888C138.761 113.599 138.687 114.472 138.15 115.507L124.642 141.694C124.254 142.434 123.792 142.981 123.255 143.336C122.749 143.662 122.093 143.824 121.287 143.824C120.512 143.824 119.901 143.603 119.454 143.159C119.006 142.715 118.693 142.049 118.514 141.161L114.31 119.457H115.339L103.844 141.694C103.456 142.434 103.009 142.981 102.502 143.336C101.995 143.662 101.324 143.824 100.489 143.824Z" fill="#00C2CB" style="fill:#00C2CB;fill:color(display-p3 0.0000 0.7608 0.7961);fill-opacity:1;"/>
<path d="M146.728 143.913C144.581 143.913 142.732 143.514 141.182 142.715C139.661 141.916 138.483 140.777 137.648 139.297C136.843 137.818 136.44 136.087 136.44 134.104C136.44 132.151 136.754 130.391 137.38 128.823C138.006 127.254 138.871 125.908 139.974 124.784C141.107 123.659 142.404 122.801 143.865 122.209C145.326 121.617 146.907 121.322 148.606 121.322C150.753 121.322 152.587 121.721 154.108 122.52C155.659 123.319 156.836 124.458 157.641 125.938C158.476 127.387 158.894 129.118 158.894 131.13C158.894 133.083 158.581 134.844 157.955 136.412C157.328 137.981 156.449 139.327 155.316 140.451C154.212 141.576 152.93 142.434 151.469 143.026C150.008 143.617 148.428 143.913 146.728 143.913ZM146.862 139.697C148.234 139.697 149.382 139.312 150.306 138.543C151.26 137.773 151.991 136.723 152.498 135.391C153.005 134.06 153.258 132.58 153.258 130.953C153.258 129.207 152.826 127.876 151.961 126.958C151.126 126.011 149.963 125.538 148.472 125.538C147.13 125.538 145.982 125.923 145.028 126.692C144.074 127.461 143.343 128.512 142.837 129.843C142.33 131.145 142.076 132.625 142.076 134.282C142.076 136.028 142.494 137.374 143.329 138.321C144.193 139.238 145.371 139.697 146.862 139.697Z" fill="#00C2CB" style="fill:#00C2CB;fill:color(display-p3 0.0000 0.7608 0.7961);fill-opacity:1;"/>
<path d="M164.493 143.824C163.598 143.824 162.942 143.558 162.525 143.026C162.137 142.463 162.018 141.679 162.167 140.673L164.806 124.073C164.955 123.186 165.298 122.52 165.834 122.076C166.371 121.632 167.072 121.41 167.937 121.41C168.801 121.41 169.428 121.677 169.815 122.209C170.233 122.742 170.367 123.511 170.218 124.517L169.815 127.003H169.368C169.964 125.257 170.948 123.911 172.32 122.964C173.692 121.987 175.317 121.44 177.195 121.322C178.03 121.262 178.582 121.381 178.85 121.677C179.148 121.972 179.297 122.461 179.297 123.141C179.297 124.118 179.074 124.843 178.627 125.316C178.179 125.76 177.479 126.026 176.524 126.115L175.227 126.248C173.229 126.455 171.798 127.062 170.933 128.068C170.069 129.044 169.487 130.42 169.189 132.196L167.758 141.161C167.638 142.049 167.295 142.715 166.729 143.159C166.192 143.603 165.447 143.824 164.493 143.824Z" fill="#00C2CB" style="fill:#00C2CB;fill:color(display-p3 0.0000 0.7608 0.7961);fill-opacity:1;"/>
<path d="M182.008 143.824C181.143 143.824 180.502 143.543 180.085 142.981C179.697 142.419 179.578 141.635 179.727 140.629L183.887 114.486C184.036 113.569 184.379 112.903 184.915 112.489C185.452 112.045 186.183 111.823 187.107 111.823C187.972 111.823 188.598 112.119 188.986 112.711C189.403 113.273 189.537 114.072 189.388 115.108L186.839 130.997H186.928L195.65 123.053C196.246 122.49 196.768 122.076 197.216 121.81C197.693 121.543 198.259 121.41 198.915 121.41C199.661 121.41 200.197 121.617 200.525 122.032C200.883 122.446 201.017 122.964 200.928 123.585C200.868 124.177 200.555 124.739 199.989 125.272L191.222 133.438V131.042L198.334 139.919C198.811 140.51 199.02 141.117 198.96 141.738C198.93 142.33 198.707 142.833 198.289 143.247C197.872 143.632 197.305 143.824 196.589 143.824C195.814 143.824 195.203 143.662 194.756 143.336C194.338 142.981 193.831 142.449 193.235 141.738L186.526 133.572H186.436L185.229 141.161C184.96 142.937 183.887 143.824 182.008 143.824Z" fill="#00C2CB" style="fill:#00C2CB;fill:color(display-p3 0.0000 0.7608 0.7961);fill-opacity:1;"/>
<path d="M207.464 143.824C206.6 143.824 205.958 143.543 205.541 142.981C205.153 142.389 205.034 141.59 205.183 140.584L207.554 125.938H205.675C204.959 125.938 204.408 125.79 204.02 125.494C203.662 125.198 203.483 124.784 203.483 124.251C203.483 123.482 203.707 122.875 204.154 122.431C204.631 121.987 205.258 121.765 206.033 121.765H208.806L208.09 122.342L208.359 120.7C208.776 118.155 209.79 116.143 211.4 114.664C213.011 113.184 215.366 112.341 218.467 112.134L219.899 112.045C220.495 112.016 220.957 112.134 221.285 112.4C221.613 112.637 221.822 112.962 221.911 113.377C222.031 113.761 222.031 114.161 221.911 114.575C221.822 114.989 221.628 115.344 221.33 115.64C221.062 115.936 220.704 116.099 220.256 116.129L219.049 116.217C217.498 116.336 216.32 116.75 215.515 117.46C214.71 118.17 214.188 119.221 213.95 120.611L213.681 122.209L213.279 121.765H217.304C218.02 121.765 218.557 121.913 218.915 122.209C219.302 122.476 219.496 122.875 219.496 123.408C219.496 124.207 219.258 124.828 218.78 125.272C218.333 125.716 217.722 125.938 216.947 125.938H213.145L210.729 141.073C210.401 142.907 209.313 143.824 207.464 143.824ZM227.145 143.913C224.67 143.913 222.88 143.218 221.777 141.827C220.674 140.407 220.331 138.35 220.748 135.658L224.148 114.575C224.297 113.658 224.64 112.977 225.177 112.533C225.713 112.06 226.444 111.823 227.368 111.823C228.233 111.823 228.859 112.104 229.247 112.667C229.664 113.229 229.798 114.028 229.649 115.063L226.339 135.613C226.131 136.915 226.235 137.877 226.653 138.498C227.1 139.09 227.815 139.386 228.799 139.386C229.127 139.386 229.396 139.371 229.605 139.342C229.813 139.282 230.007 139.253 230.186 139.253C230.484 139.253 230.723 139.356 230.902 139.564C231.081 139.771 231.17 140.17 231.17 140.762C231.17 141.62 230.991 142.286 230.633 142.759C230.276 143.203 229.843 143.499 229.336 143.647C229.068 143.736 228.725 143.795 228.307 143.824C227.89 143.884 227.502 143.913 227.145 143.913Z" fill="#00C2CB" style="fill:#00C2CB;fill:color(display-p3 0.0000 0.7608 0.7961);fill-opacity:1;"/>
<path d="M244.308 143.913C242.161 143.913 240.313 143.514 238.762 142.715C237.241 141.916 236.063 140.777 235.228 139.297C234.423 137.818 234.021 136.087 234.021 134.104C234.021 132.151 234.334 130.391 234.96 128.823C235.586 127.254 236.451 125.908 237.554 124.784C238.687 123.659 239.985 122.801 241.446 122.209C242.907 121.617 244.487 121.322 246.187 121.322C248.334 121.322 250.168 121.721 251.688 122.52C253.239 123.319 254.417 124.458 255.222 125.938C256.057 127.387 256.474 129.118 256.474 131.13C256.474 133.083 256.161 134.844 255.535 136.412C254.909 137.981 254.029 139.327 252.896 140.451C251.793 141.576 250.51 142.434 249.049 143.026C247.588 143.617 246.008 143.913 244.308 143.913ZM244.442 139.697C245.814 139.697 246.962 139.312 247.886 138.543C248.841 137.773 249.571 136.723 250.078 135.391C250.585 134.06 250.839 132.58 250.839 130.953C250.839 129.207 250.406 127.876 249.541 126.958C248.706 126.011 247.544 125.538 246.053 125.538C244.711 125.538 243.563 125.923 242.609 126.692C241.654 127.461 240.924 128.512 240.417 129.843C239.91 131.145 239.656 132.625 239.656 134.282C239.656 136.028 240.074 137.374 240.909 138.321C241.774 139.238 242.951 139.697 244.442 139.697Z" fill="#00C2CB" style="fill:#00C2CB;fill:color(display-p3 0.0000 0.7608 0.7961);fill-opacity:1;"/>
<path d="M267.317 143.824C266.571 143.824 265.945 143.617 265.438 143.203C264.931 142.789 264.573 142.138 264.365 141.25L260.563 125.227C260.384 124.458 260.369 123.792 260.518 123.23C260.697 122.668 261.01 122.224 261.457 121.899C261.904 121.573 262.456 121.41 263.112 121.41C263.828 121.41 264.365 121.603 264.722 121.987C265.11 122.342 265.393 122.964 265.572 123.851L268.569 138.41H267.451L275.636 123.053C275.964 122.461 276.322 122.046 276.709 121.81C277.127 121.543 277.649 121.41 278.275 121.41C278.871 121.41 279.363 121.573 279.751 121.899C280.168 122.224 280.452 122.742 280.601 123.452L283.687 138.41H282.792L290.665 123.452C291.082 122.683 291.514 122.15 291.962 121.854C292.409 121.558 293.005 121.41 293.751 121.41C294.466 121.41 295.018 121.573 295.406 121.899C295.793 122.194 296.002 122.594 296.032 123.097C296.062 123.6 295.913 124.162 295.585 124.784L286.192 141.738C285.804 142.449 285.327 142.981 284.76 143.336C284.224 143.662 283.583 143.824 282.837 143.824C282.092 143.824 281.451 143.617 280.914 143.203C280.407 142.759 280.049 142.108 279.84 141.25L276.486 126.115H279.035L270.716 141.65C270.328 142.389 269.851 142.937 269.285 143.292C268.748 143.647 268.092 143.824 267.317 143.824Z" fill="#00C2CB" style="fill:#00C2CB;fill:color(display-p3 0.0000 0.7608 0.7961);fill-opacity:1;"/>
<path d="M35.9238 159.63V158.521H45.581V159.63H41.3605V172.032H40.1444V159.63H35.9238Z" fill="#105B5E" style="fill:#105B5E;fill:color(display-p3 0.0633 0.3567 0.3703);fill-opacity:1;"/>
<path d="M49.2358 165.699V172.032H48.0782V158.521H49.2358V163.489H49.3399C49.574 162.966 49.936 162.548 50.4259 162.235C50.9201 161.923 51.5444 161.767 52.2988 161.767C52.9751 161.767 53.5691 161.908 54.0807 162.189C54.5922 162.471 54.9911 162.886 55.2772 163.436C55.5634 163.986 55.7064 164.663 55.7064 165.468V172.032H54.5424V165.541C54.5424 164.705 54.3126 164.047 53.853 163.568C53.3978 163.084 52.7822 162.842 52.0061 162.842C51.4729 162.842 50.9982 162.957 50.582 163.185C50.1658 163.414 49.8363 163.744 49.5935 164.175C49.355 164.602 49.2358 165.11 49.2358 165.699Z" fill="#105B5E" style="fill:#105B5E;fill:color(display-p3 0.0633 0.3567 0.3703);fill-opacity:1;"/>
<path d="M62.7933 172.243C61.8611 172.243 61.0548 172.023 60.3741 171.584C59.6934 171.139 59.1667 170.526 58.7938 169.743C58.4253 168.956 58.2411 168.05 58.2411 167.025C58.2411 166.005 58.4253 165.099 58.7938 164.307C59.1667 163.511 59.6804 162.889 60.3351 162.44C60.9941 161.987 61.7549 161.76 62.6177 161.76C63.1596 161.76 63.682 161.862 64.1849 162.064C64.6879 162.262 65.1387 162.568 65.5376 162.981C65.9408 163.39 66.2595 163.907 66.4936 164.531C66.7277 165.151 66.8447 165.886 66.8447 166.735V167.315H59.0409V166.28H65.6612C65.6612 165.629 65.5311 165.044 65.271 164.525C65.0152 164.001 64.6575 163.588 64.198 163.284C63.7427 162.981 63.216 162.829 62.6177 162.829C61.9847 162.829 61.4276 163.001 60.9464 163.344C60.4651 163.687 60.088 164.14 59.8148 164.703C59.546 165.266 59.4095 165.882 59.4051 166.55V167.17C59.4051 167.975 59.5417 168.679 59.8148 169.281C60.0923 169.879 60.4846 170.343 60.9919 170.673C61.4991 171.003 62.0996 171.168 62.7933 171.168C63.2658 171.168 63.6799 171.093 64.0354 170.944C64.3952 170.794 64.6965 170.594 64.9393 170.343C65.1864 170.088 65.3729 169.809 65.4986 169.506L66.5976 169.868C66.4459 170.295 66.1966 170.689 65.8498 171.049C65.5073 171.41 65.078 171.7 64.5621 171.92C64.0505 172.136 63.4609 172.243 62.7933 172.243Z" fill="#105B5E" style="fill:#105B5E;fill:color(display-p3 0.0633 0.3567 0.3703);fill-opacity:1;"/>
<path d="M74.7867 172.032V158.521H82.493V159.63H76.0028V164.716H81.8882V165.824H76.0028V172.032H74.7867Z" fill="#105B5E" style="fill:#105B5E;fill:color(display-p3 0.0633 0.3567 0.3703);fill-opacity:1;"/>
<path d="M90.9975 168.16V161.899H92.155V172.032H90.9975V170.35H90.9064C90.6723 170.869 90.3016 171.302 89.7944 171.65C89.2872 171.993 88.6672 172.164 87.9345 172.164C87.2972 172.164 86.7314 172.023 86.2372 171.742C85.7429 171.456 85.3549 171.038 85.0731 170.489C84.7913 169.939 84.6504 169.264 84.6504 168.463V161.899H85.808V168.391C85.808 169.182 86.0377 169.82 86.4973 170.304C86.9569 170.783 87.5465 171.023 88.2662 171.023C88.717 171.023 89.1506 170.913 89.5668 170.693C89.983 170.473 90.3255 170.152 90.5943 169.73C90.8631 169.303 90.9975 168.78 90.9975 168.16Z" fill="#105B5E" style="fill:#105B5E;fill:color(display-p3 0.0633 0.3567 0.3703);fill-opacity:1;"/>
<path d="M99.1541 161.899V162.922H94.3873V161.899H99.1541ZM95.8765 159.471H97.0405V169.387C97.0405 169.809 97.1121 170.141 97.2551 170.383C97.3982 170.62 97.5846 170.79 97.8144 170.891C98.0442 170.988 98.2892 171.036 98.5493 171.036C98.701 171.036 98.8311 171.027 98.9395 171.01C99.0479 170.988 99.1432 170.966 99.2256 170.944L99.4727 172.006C99.36 172.05 99.2213 172.089 99.0565 172.125C98.8918 172.164 98.688 172.184 98.4452 172.184C98.0204 172.184 97.6107 172.089 97.2161 171.9C96.8259 171.711 96.5051 171.43 96.2537 171.056C96.0022 170.682 95.8765 170.218 95.8765 169.664V159.471Z" fill="#105B5E" style="fill:#105B5E;fill:color(display-p3 0.0633 0.3567 0.3703);fill-opacity:1;"/>
<path d="M108.13 168.16V161.899H109.288V172.032H108.13V170.35H108.039C107.805 170.869 107.434 171.302 106.927 171.65C106.42 171.993 105.8 172.164 105.067 172.164C104.43 172.164 103.864 172.023 103.37 171.742C102.876 171.456 102.487 171.038 102.206 170.489C101.924 169.939 101.783 169.264 101.783 168.463V161.899H102.941V168.391C102.941 169.182 103.17 169.82 103.63 170.304C104.089 170.783 104.679 171.023 105.399 171.023C105.85 171.023 106.283 170.913 106.699 170.693C107.116 170.473 107.458 170.152 107.727 169.73C107.996 169.303 108.13 168.78 108.13 168.16Z" fill="#105B5E" style="fill:#105B5E;fill:color(display-p3 0.0633 0.3567 0.3703);fill-opacity:1;"/>
<path d="M112.352 172.032V161.899H113.477V163.456H113.562C113.761 162.946 114.108 162.535 114.602 162.222C115.101 161.906 115.665 161.747 116.293 161.747C116.389 161.747 116.495 161.749 116.612 161.754C116.729 161.758 116.826 161.763 116.904 161.767V162.961C116.852 162.952 116.761 162.939 116.631 162.922C116.501 162.904 116.36 162.895 116.209 162.895C115.688 162.895 115.224 163.007 114.817 163.232C114.414 163.452 114.095 163.757 113.861 164.149C113.627 164.54 113.51 164.986 113.51 165.488V172.032H112.352Z" fill="#105B5E" style="fill:#105B5E;fill:color(display-p3 0.0633 0.3567 0.3703);fill-opacity:1;"/>
<path d="M122.614 172.243C121.682 172.243 120.876 172.023 120.195 171.584C119.514 171.139 118.988 170.526 118.615 169.743C118.246 168.956 118.062 168.05 118.062 167.025C118.062 166.005 118.246 165.099 118.615 164.307C118.988 163.511 119.501 162.889 120.156 162.44C120.815 161.987 121.576 161.76 122.439 161.76C122.981 161.76 123.503 161.862 124.006 162.064C124.509 162.262 124.96 162.568 125.359 162.981C125.762 163.39 126.08 163.907 126.315 164.531C126.549 165.151 126.666 165.886 126.666 166.735V167.315H118.862V166.28H125.482C125.482 165.629 125.352 165.044 125.092 164.525C124.836 164.001 124.478 163.588 124.019 163.284C123.564 162.981 123.037 162.829 122.439 162.829C121.806 162.829 121.249 163.001 120.767 163.344C120.286 163.687 119.909 164.14 119.636 164.703C119.367 165.266 119.23 165.882 119.226 166.55V167.17C119.226 167.975 119.363 168.679 119.636 169.281C119.913 169.879 120.306 170.343 120.813 170.673C121.32 171.003 121.921 171.168 122.614 171.168C123.087 171.168 123.501 171.093 123.856 170.944C124.216 170.794 124.517 170.594 124.76 170.343C125.007 170.088 125.194 169.809 125.32 169.506L126.419 169.868C126.267 170.295 126.018 170.689 125.671 171.049C125.328 171.41 124.899 171.7 124.383 171.92C123.872 172.136 123.282 172.243 122.614 172.243Z" fill="#105B5E" style="fill:#105B5E;fill:color(display-p3 0.0633 0.3567 0.3703);fill-opacity:1;"/>
<path d="M138.249 172.243C137.387 172.243 136.624 172.021 135.96 171.577C135.301 171.133 134.785 170.519 134.413 169.736C134.04 168.949 133.853 168.041 133.853 167.012C133.853 165.974 134.04 165.061 134.413 164.274C134.785 163.482 135.301 162.867 135.96 162.427C136.624 161.983 137.387 161.76 138.249 161.76C139.112 161.76 139.873 161.983 140.532 162.427C141.191 162.871 141.707 163.487 142.08 164.274C142.457 165.061 142.646 165.974 142.646 167.012C142.646 168.041 142.459 168.949 142.086 169.736C141.713 170.519 141.195 171.133 140.532 171.577C139.873 172.021 139.112 172.243 138.249 172.243ZM138.249 171.168C138.943 171.168 139.531 170.979 140.012 170.601C140.493 170.222 140.857 169.719 141.104 169.09C141.356 168.461 141.482 167.768 141.482 167.012C141.482 166.255 141.356 165.56 141.104 164.927C140.857 164.294 140.493 163.786 140.012 163.403C139.531 163.021 138.943 162.829 138.249 162.829C137.56 162.829 136.973 163.021 136.487 163.403C136.006 163.786 135.64 164.294 135.388 164.927C135.141 165.56 135.017 166.255 135.017 167.012C135.017 167.768 135.141 168.461 135.388 169.09C135.64 169.719 136.006 170.222 136.487 170.601C136.968 170.979 137.556 171.168 138.249 171.168Z" fill="#105B5E" style="fill:#105B5E;fill:color(display-p3 0.0633 0.3567 0.3703);fill-opacity:1;"/>
<path d="M149.297 161.899V162.922H144.387V161.899H149.297ZM145.922 172.032V160.415C145.922 159.869 146.045 159.41 146.292 159.036C146.544 158.662 146.871 158.378 147.274 158.185C147.677 157.991 148.104 157.895 148.555 157.895C148.859 157.895 149.11 157.921 149.31 157.974C149.513 158.022 149.674 158.07 149.791 158.119L149.453 159.148C149.366 159.122 149.26 159.091 149.134 159.056C149.008 159.02 148.85 159.003 148.659 159.003C148.156 159.003 147.768 159.146 147.495 159.432C147.222 159.718 147.086 160.127 147.086 160.659L147.079 172.032H145.922Z" fill="#105B5E" style="fill:#105B5E;fill:color(display-p3 0.0633 0.3567 0.3703);fill-opacity:1;"/>
<path d="M156.998 172.032V158.521H161.297C162.242 158.521 163.031 158.706 163.664 159.075C164.301 159.44 164.78 159.937 165.101 160.566C165.426 161.195 165.589 161.903 165.589 162.691C165.589 163.478 165.428 164.188 165.108 164.822C164.787 165.45 164.31 165.95 163.677 166.319C163.044 166.684 162.257 166.867 161.316 166.867H157.935V165.758H161.284C161.982 165.758 162.56 165.626 163.02 165.363C163.48 165.094 163.822 164.729 164.048 164.267C164.277 163.806 164.392 163.28 164.392 162.691C164.392 162.101 164.277 161.576 164.048 161.114C163.822 160.652 163.477 160.289 163.013 160.025C162.554 159.762 161.971 159.63 161.264 159.63H158.214V172.032H156.998Z" fill="#105B5E" style="fill:#105B5E;fill:color(display-p3 0.0633 0.3567 0.3703);fill-opacity:1;"/>
<path d="M170.993 172.263C170.39 172.263 169.84 172.144 169.341 171.907C168.842 171.665 168.446 171.318 168.151 170.865C167.856 170.407 167.709 169.853 167.709 169.202C167.709 168.701 167.802 168.278 167.988 167.935C168.175 167.592 168.439 167.311 168.782 167.091C169.124 166.871 169.53 166.697 169.998 166.57C170.466 166.442 170.982 166.343 171.546 166.273C172.105 166.203 172.577 166.141 172.963 166.088C173.354 166.035 173.65 165.952 173.854 165.838C174.058 165.723 174.16 165.538 174.16 165.283V165.046C174.16 164.355 173.956 163.812 173.549 163.416C173.145 163.016 172.564 162.816 171.806 162.816C171.086 162.816 170.499 162.977 170.043 163.298C169.593 163.619 169.276 163.997 169.094 164.432L167.995 164.03C168.22 163.476 168.533 163.034 168.931 162.704C169.33 162.37 169.777 162.13 170.271 161.985C170.765 161.835 171.266 161.76 171.773 161.76C172.155 161.76 172.551 161.811 172.963 161.912C173.38 162.013 173.765 162.189 174.121 162.44C174.476 162.686 174.765 163.032 174.986 163.476C175.207 163.916 175.317 164.474 175.317 165.151V172.032H174.16V170.429H174.088C173.95 170.728 173.744 171.019 173.471 171.3C173.197 171.581 172.855 171.812 172.443 171.993C172.031 172.173 171.548 172.263 170.993 172.263ZM171.149 171.188C171.765 171.188 172.298 171.049 172.749 170.772C173.2 170.495 173.546 170.128 173.789 169.67C174.036 169.209 174.16 168.701 174.16 168.147V166.682C174.073 166.766 173.928 166.84 173.724 166.906C173.525 166.972 173.293 167.032 173.028 167.084C172.768 167.133 172.508 167.175 172.248 167.21C171.988 167.245 171.754 167.276 171.546 167.302C170.982 167.372 170.501 167.482 170.102 167.632C169.703 167.782 169.397 167.988 169.185 168.252C168.973 168.512 168.866 168.846 168.866 169.255C168.866 169.871 169.083 170.348 169.517 170.686C169.95 171.021 170.494 171.188 171.149 171.188Z" fill="#105B5E" style="fill:#105B5E;fill:color(display-p3 0.0633 0.3567 0.3703);fill-opacity:1;"/>
<path d="M182.331 161.899V162.922H177.564V161.899H182.331ZM179.054 159.471H180.218V169.387C180.218 169.809 180.289 170.141 180.432 170.383C180.575 170.62 180.762 170.79 180.991 170.891C181.221 170.988 181.466 171.036 181.726 171.036C181.878 171.036 182.008 171.027 182.117 171.01C182.225 170.988 182.32 170.966 182.403 170.944L182.65 172.006C182.537 172.05 182.398 172.089 182.234 172.125C182.069 172.164 181.865 172.184 181.622 172.184C181.197 172.184 180.788 172.089 180.393 171.9C180.003 171.711 179.682 171.43 179.431 171.056C179.179 170.682 179.054 170.218 179.054 169.664V159.471Z" fill="#105B5E" style="fill:#105B5E;fill:color(display-p3 0.0633 0.3567 0.3703);fill-opacity:1;"/>
<path d="M184.973 172.032V161.899H186.137V172.032H184.973ZM185.565 160.157C185.326 160.157 185.123 160.076 184.954 159.913C184.784 159.746 184.7 159.546 184.7 159.313C184.7 159.08 184.784 158.882 184.954 158.719C185.123 158.552 185.326 158.468 185.565 158.468C185.803 158.468 186.007 158.552 186.176 158.719C186.345 158.882 186.43 159.08 186.43 159.313C186.43 159.546 186.345 159.746 186.176 159.913C186.007 160.076 185.803 160.157 185.565 160.157Z" fill="#105B5E" style="fill:#105B5E;fill:color(display-p3 0.0633 0.3567 0.3703);fill-opacity:1;"/>
<path d="M193.237 172.243C192.305 172.243 191.498 172.023 190.818 171.584C190.137 171.139 189.61 170.526 189.238 169.743C188.869 168.956 188.685 168.05 188.685 167.025C188.685 166.005 188.869 165.099 189.238 164.307C189.61 163.511 190.124 162.889 190.779 162.44C191.438 161.987 192.199 161.76 193.061 161.76C193.603 161.76 194.126 161.862 194.629 162.064C195.132 162.262 195.582 162.568 195.981 162.981C196.384 163.39 196.703 163.907 196.937 164.531C197.171 165.151 197.288 165.886 197.288 166.735V167.315H189.485V166.28H196.105C196.105 165.629 195.975 165.044 195.715 164.525C195.459 164.001 195.101 163.588 194.642 163.284C194.186 162.981 193.66 162.829 193.061 162.829C192.428 162.829 191.871 163.001 191.39 163.344C190.909 163.687 190.532 164.14 190.258 164.703C189.99 165.266 189.853 165.882 189.849 166.55V167.17C189.849 167.975 189.985 168.679 190.258 169.281C190.536 169.879 190.928 170.343 191.436 170.673C191.943 171.003 192.543 171.168 193.237 171.168C193.71 171.168 194.124 171.093 194.479 170.944C194.839 170.794 195.14 170.594 195.383 170.343C195.63 170.088 195.817 169.809 195.942 169.506L197.041 169.868C196.89 170.295 196.64 170.689 196.293 171.049C195.951 171.41 195.522 171.7 195.006 171.92C194.494 172.136 193.905 172.243 193.237 172.243Z" fill="#105B5E" style="fill:#105B5E;fill:color(display-p3 0.0633 0.3567 0.3703);fill-opacity:1;"/>
<path d="M200.997 165.699V172.032H199.839V161.899H200.964V163.489H201.068C201.302 162.97 201.667 162.554 202.161 162.242C202.659 161.925 203.275 161.767 204.008 161.767C204.68 161.767 205.269 161.91 205.777 162.196C206.288 162.477 206.685 162.893 206.967 163.443C207.253 163.993 207.396 164.668 207.396 165.468V172.032H206.238V165.541C206.238 164.709 206.009 164.052 205.549 163.568C205.094 163.084 204.483 162.842 203.715 162.842C203.191 162.842 202.725 162.957 202.317 163.185C201.909 163.414 201.586 163.744 201.348 164.175C201.114 164.602 200.997 165.11 200.997 165.699Z" fill="#105B5E" style="fill:#105B5E;fill:color(display-p3 0.0633 0.3567 0.3703);fill-opacity:1;"/>
<path d="M214.379 161.899V162.922H209.612V161.899H214.379ZM211.101 159.471H212.265V169.387C212.265 169.809 212.337 170.141 212.48 170.383C212.623 170.62 212.809 170.79 213.039 170.891C213.269 170.988 213.514 171.036 213.774 171.036C213.926 171.036 214.056 171.027 214.164 171.01C214.273 170.988 214.368 170.966 214.45 170.944L214.697 172.006C214.585 172.05 214.446 172.089 214.281 172.125C214.116 172.164 213.913 172.184 213.67 172.184C213.245 172.184 212.835 172.089 212.441 171.9C212.051 171.711 211.73 171.43 211.478 171.056C211.227 170.682 211.101 170.218 211.101 169.664V159.471Z" fill="#105B5E" style="fill:#105B5E;fill:color(display-p3 0.0633 0.3567 0.3703);fill-opacity:1;"/>
<path d="M222.399 172.032V158.521H230.105V159.63H223.615V164.716H229.5V165.824H223.615V172.032H222.399Z" fill="#105B5E" style="fill:#105B5E;fill:color(display-p3 0.0633 0.3567 0.3703);fill-opacity:1;"/>
<path d="M234.046 158.521V172.032H232.888V158.521H234.046Z" fill="#105B5E" style="fill:#105B5E;fill:color(display-p3 0.0633 0.3567 0.3703);fill-opacity:1;"/>
<path d="M240.991 172.243C240.129 172.243 239.366 172.021 238.702 171.577C238.043 171.133 237.527 170.519 237.154 169.736C236.782 168.949 236.595 168.041 236.595 167.012C236.595 165.974 236.782 165.061 237.154 164.274C237.527 163.482 238.043 162.867 238.702 162.427C239.366 161.983 240.129 161.76 240.991 161.76C241.854 161.76 242.615 161.983 243.274 162.427C243.933 162.871 244.449 163.487 244.822 164.274C245.199 165.061 245.387 165.974 245.387 167.012C245.387 168.041 245.201 168.949 244.828 169.736C244.455 170.519 243.937 171.133 243.274 171.577C242.615 172.021 241.854 172.243 240.991 172.243ZM240.991 171.168C241.685 171.168 242.272 170.979 242.754 170.601C243.235 170.222 243.599 169.719 243.846 169.09C244.098 168.461 244.223 167.768 244.223 167.012C244.223 166.255 244.098 165.56 243.846 164.927C243.599 164.294 243.235 163.786 242.754 163.403C242.272 163.021 241.685 162.829 240.991 162.829C240.302 162.829 239.715 163.021 239.229 163.403C238.748 163.786 238.381 164.294 238.13 164.927C237.883 165.56 237.759 166.255 237.759 167.012C237.759 167.768 237.883 168.461 238.13 169.09C238.381 169.719 238.748 170.222 239.229 170.601C239.71 170.979 240.298 171.168 240.991 171.168Z" fill="#105B5E" style="fill:#105B5E;fill:color(display-p3 0.0633 0.3567 0.3703);fill-opacity:1;"/>
<path d="M249.806 172.032L246.789 161.899H248.011L250.379 170.258H250.463L252.824 161.899H254.053L256.394 170.238H256.485L258.852 161.899H260.075L257.057 172.032H255.861L253.494 163.726H253.37L251.003 172.032H249.806Z" fill="#105B5E" style="fill:#105B5E;fill:color(display-p3 0.0633 0.3567 0.3703);fill-opacity:1;"/>
</svg>
